<svg xmlns="http://www.w3.org/2000/svg" viewBox="0 0 1024 1024" role="img" aria-label="GSD app icon"><rect width="1024" height="1024" fill="#F4F1E9"/><path fill-rule="evenodd" fill="#B23A2E" d="M481.28,327.68 L481.23,356.37 L481.09,368.25 L480.86,377.34 L480.53,384.98 L480.11,391.69 L479.59,397.72 L478.98,403.23 L478.28,408.32 L477.47,413.07 L476.58,417.51 L475.58,421.69 L474.49,425.64 L473.30,429.38 L472.01,432.92 L470.62,436.29 L469.13,439.49 L467.54,442.54 L465.84,445.44 L464.03,448.20 L462.12,450.83 L460.09,453.33 L457.95,455.70 L455.70,457.95 L453.33,460.09 L450.83,462.12 L448.20,464.03 L445.44,465.84 L442.54,467.54 L439.49,469.13 L436.29,470.62 L432.92,472.01 L429.38,473.30 L425.64,474.49 L421.69,475.58 L417.51,476.58 L413.07,477.47 L408.32,478.28 L403.23,478.98 L397.72,479.59 L391.69,480.11 L384.98,480.53 L377.34,480.86 L368.25,481.09 L356.37,481.23 L327.68,481.28 L298.99,481.23 L287.11,481.09 L278.02,480.86 L270.38,480.53 L263.67,480.11 L257.64,479.59 L252.13,478.98 L247.04,478.28 L242.29,477.47 L237.85,476.58 L233.67,475.58 L229.72,474.49 L225.98,473.30 L222.44,472.01 L219.07,470.62 L215.87,469.13 L212.82,467.54 L209.92,465.84 L207.16,464.03 L204.53,462.12 L202.03,460.09 L199.66,457.95 L197.41,455.70 L195.27,453.33 L193.24,450.83 L191.33,448.20 L189.52,445.44 L187.82,442.54 L186.23,439.49 L184.74,436.29 L183.35,432.92 L182.06,429.38 L180.87,425.64 L179.78,421.69 L178.78,417.51 L177.89,413.07 L177.08,408.32 L176.38,403.23 L175.77,397.72 L175.25,391.69 L174.83,384.98 L174.50,377.34 L174.27,368.25 L174.13,356.37 L174.08,327.68 L174.13,298.99 L174.27,287.11 L174.50,278.02 L174.83,270.38 L175.25,263.67 L175.77,257.64 L176.38,252.13 L177.08,247.04 L177.89,242.29 L178.78,237.85 L179.78,233.67 L180.87,229.72 L182.06,225.98 L183.35,222.44 L184.74,219.07 L186.23,215.87 L187.82,212.82 L189.52,209.92 L191.33,207.16 L193.24,204.53 L195.27,202.03 L197.41,199.66 L199.66,197.41 L202.03,195.27 L204.53,193.24 L207.16,191.33 L209.92,189.52 L212.82,187.82 L215.87,186.23 L219.07,184.74 L222.44,183.35 L225.98,182.06 L229.72,180.87 L233.67,179.78 L237.85,178.78 L242.29,177.89 L247.04,177.08 L252.13,176.38 L257.64,175.77 L263.67,175.25 L270.38,174.83 L278.02,174.50 L287.11,174.27 L298.99,174.13 L327.68,174.08 L356.37,174.13 L368.25,174.27 L377.34,174.50 L384.98,174.83 L391.69,175.25 L397.72,175.77 L403.23,176.38 L408.32,177.08 L413.07,177.89 L417.51,178.78 L421.69,179.78 L425.64,180.87 L429.38,182.06 L432.92,183.35 L436.29,184.74 L439.49,186.23 L442.54,187.82 L445.44,189.52 L448.20,191.33 L450.83,193.24 L453.33,195.27 L455.70,197.41 L457.95,199.66 L460.09,202.03 L462.12,204.53 L464.03,207.16 L465.84,209.92 L467.54,212.82 L469.13,215.87 L470.62,219.07 L472.01,222.44 L473.30,225.98 L474.49,229.72 L475.58,233.67 L476.58,237.85 L477.47,242.29 L478.28,247.04 L478.98,252.13 L479.59,257.64 L480.11,263.67 L480.53,270.38 L480.86,278.02 L481.09,287.11 L481.23,298.99 Z M294.53,381.31 L295.37,382.10 L296.26,382.83 L297.19,383.50 L298.17,384.12 L299.18,384.66 L300.22,385.15 L301.30,385.56 L302.40,385.90 L303.51,386.18 L304.65,386.38 L305.79,386.50 L306.94,386.56 L308.09,386.54 L309.24,386.44 L310.38,386.28 L311.50,386.04 L312.61,385.72 L313.70,385.34 L314.76,384.89 L315.78,384.37 L316.78,383.79 L317.73,383.14 L318.64,382.43 L319.50,381.67 L320.31,380.85 L321.07,379.99 L413.23,267.35 L413.94,266.42 L414.59,265.44 L415.18,264.42 L415.69,263.37 L416.14,262.29 L416.52,261.18 L416.82,260.04 L417.04,258.89 L417.20,257.73 L417.27,256.56 L417.27,255.39 L417.19,254.22 L417.04,253.05 L416.81,251.90 L416.50,250.77 L416.12,249.66 L415.67,248.58 L415.15,247.53 L414.56,246.51 L413.91,245.54 L413.20,244.61 L412.42,243.73 L411.59,242.90 L410.71,242.13 L409.78,241.42 L408.80,240.77 L407.78,240.18 L406.73,239.67 L405.65,239.22 L404.54,238.84 L403.40,238.54 L402.25,238.32 L401.09,238.16 L399.92,238.09 L398.75,238.09 L397.58,238.17 L396.41,238.32 L395.26,238.55 L394.13,238.86 L393.02,239.24 L391.94,239.69 L390.89,240.21 L389.87,240.80 L388.90,241.45 L387.97,242.16 L387.09,242.94 L386.26,243.77 L385.49,244.65 L305.87,341.97 L278.91,315.01 L278.06,314.21 L277.15,313.46 L276.20,312.78 L275.20,312.16 L274.17,311.61 L273.10,311.12 L272.00,310.71 L270.88,310.37 L269.74,310.10 L268.58,309.91 L267.41,309.80 L266.24,309.76 L265.07,309.80 L263.90,309.91 L262.74,310.10 L261.60,310.37 L260.48,310.71 L259.38,311.12 L258.31,311.61 L257.28,312.16 L256.28,312.78 L255.33,313.46 L254.42,314.21 L253.57,315.01 L252.77,315.86 L252.02,316.77 L251.34,317.72 L250.72,318.72 L250.17,319.75 L249.68,320.82 L249.27,321.92 L248.93,323.04 L248.66,324.18 L248.47,325.34 L248.36,326.51 L248.32,327.68 L248.36,328.85 L248.47,330.02 L248.66,331.18 L248.93,332.32 L249.27,333.44 L249.68,334.54 L250.17,335.61 L250.72,336.64 L251.34,337.64 L252.02,338.59 L252.77,339.50 L253.57,340.35 L294.53,381.31 Z"/><path fill="#2C6680" d="M849.92,327.68 L849.87,356.37 L849.73,368.25 L849.50,377.34 L849.17,384.98 L848.75,391.69 L848.23,397.72 L847.62,403.23 L846.92,408.32 L846.11,413.07 L845.22,417.51 L844.22,421.69 L843.13,425.64 L841.94,429.38 L840.65,432.92 L839.26,436.29 L837.77,439.49 L836.18,442.54 L834.48,445.44 L832.67,448.20 L830.76,450.83 L828.73,453.33 L826.59,455.70 L824.34,457.95 L821.97,460.09 L819.47,462.12 L816.84,464.03 L814.08,465.84 L811.18,467.54 L808.13,469.13 L804.93,470.62 L801.56,472.01 L798.02,473.30 L794.28,474.49 L790.33,475.58 L786.15,476.58 L781.71,477.47 L776.96,478.28 L771.87,478.98 L766.36,479.59 L760.33,480.11 L753.62,480.53 L745.98,480.86 L736.89,481.09 L725.01,481.23 L696.32,481.28 L667.63,481.23 L655.75,481.09 L646.66,480.86 L639.02,480.53 L632.31,480.11 L626.28,479.59 L620.77,478.98 L615.68,478.28 L610.93,477.47 L606.49,476.58 L602.31,475.58 L598.36,474.49 L594.62,473.30 L591.08,472.01 L587.71,470.62 L584.51,469.13 L581.46,467.54 L578.56,465.84 L575.80,464.03 L573.17,462.12 L570.67,460.09 L568.30,457.95 L566.05,455.70 L563.91,453.33 L561.88,450.83 L559.97,448.20 L558.16,445.44 L556.46,442.54 L554.87,439.49 L553.38,436.29 L551.99,432.92 L550.70,429.38 L549.51,425.64 L548.42,421.69 L547.42,417.51 L546.53,413.07 L545.72,408.32 L545.02,403.23 L544.41,397.72 L543.89,391.69 L543.47,384.98 L543.14,377.34 L542.91,368.25 L542.77,356.37 L542.72,327.68 L542.77,298.99 L542.91,287.11 L543.14,278.02 L543.47,270.38 L543.89,263.67 L544.41,257.64 L545.02,252.13 L545.72,247.04 L546.53,242.29 L547.42,237.85 L548.42,233.67 L549.51,229.72 L550.70,225.98 L551.99,222.44 L553.38,219.07 L554.87,215.87 L556.46,212.82 L558.16,209.92 L559.97,207.16 L561.88,204.53 L563.91,202.03 L566.05,199.66 L568.30,197.41 L570.67,195.27 L573.17,193.24 L575.80,191.33 L578.56,189.52 L581.46,187.82 L584.51,186.23 L587.71,184.74 L591.08,183.35 L594.62,182.06 L598.36,180.87 L602.31,179.78 L606.49,178.78 L610.93,177.89 L615.68,177.08 L620.77,176.38 L626.28,175.77 L632.31,175.25 L639.02,174.83 L646.66,174.50 L655.75,174.27 L667.63,174.13 L696.32,174.08 L725.01,174.13 L736.89,174.27 L745.98,174.50 L753.62,174.83 L760.33,175.25 L766.36,175.77 L771.87,176.38 L776.96,177.08 L781.71,177.89 L786.15,178.78 L790.33,179.78 L794.28,180.87 L798.02,182.06 L801.56,183.35 L804.93,184.74 L808.13,186.23 L811.18,187.82 L814.08,189.52 L816.84,191.33 L819.47,193.24 L821.97,195.27 L824.34,197.41 L826.59,199.66 L828.73,202.03 L830.76,204.53 L832.67,207.16 L834.48,209.92 L836.18,212.82 L837.77,215.87 L839.26,219.07 L840.65,222.44 L841.94,225.98 L843.13,229.72 L844.22,233.67 L845.22,237.85 L846.11,242.29 L846.92,247.04 L847.62,252.13 L848.23,257.64 L848.75,263.67 L849.17,270.38 L849.50,278.02 L849.73,287.11 L849.87,298.99 Z"/><path fill="#8A6A22" d="M481.28,696.32 L481.23,725.01 L481.09,736.89 L480.86,745.98 L480.53,753.62 L480.11,760.33 L479.59,766.36 L478.98,771.87 L478.28,776.96 L477.47,781.71 L476.58,786.15 L475.58,790.33 L474.49,794.28 L473.30,798.02 L472.01,801.56 L470.62,804.93 L469.13,808.13 L467.54,811.18 L465.84,814.08 L464.03,816.84 L462.12,819.47 L460.09,821.97 L457.95,824.34 L455.70,826.59 L453.33,828.73 L450.83,830.76 L448.20,832.67 L445.44,834.48 L442.54,836.18 L439.49,837.77 L436.29,839.26 L432.92,840.65 L429.38,841.94 L425.64,843.13 L421.69,844.22 L417.51,845.22 L413.07,846.11 L408.32,846.92 L403.23,847.62 L397.72,848.23 L391.69,848.75 L384.98,849.17 L377.34,849.50 L368.25,849.73 L356.37,849.87 L327.68,849.92 L298.99,849.87 L287.11,849.73 L278.02,849.50 L270.38,849.17 L263.67,848.75 L257.64,848.23 L252.13,847.62 L247.04,846.92 L242.29,846.11 L237.85,845.22 L233.67,844.22 L229.72,843.13 L225.98,841.94 L222.44,840.65 L219.07,839.26 L215.87,837.77 L212.82,836.18 L209.92,834.48 L207.16,832.67 L204.53,830.76 L202.03,828.73 L199.66,826.59 L197.41,824.34 L195.27,821.97 L193.24,819.47 L191.33,816.84 L189.52,814.08 L187.82,811.18 L186.23,808.13 L184.74,804.93 L183.35,801.56 L182.06,798.02 L180.87,794.28 L179.78,790.33 L178.78,786.15 L177.89,781.71 L177.08,776.96 L176.38,771.87 L175.77,766.36 L175.25,760.33 L174.83,753.62 L174.50,745.98 L174.27,736.89 L174.13,725.01 L174.08,696.32 L174.13,667.63 L174.27,655.75 L174.50,646.66 L174.83,639.02 L175.25,632.31 L175.77,626.28 L176.38,620.77 L177.08,615.68 L177.89,610.93 L178.78,606.49 L179.78,602.31 L180.87,598.36 L182.06,594.62 L183.35,591.08 L184.74,587.71 L186.23,584.51 L187.82,581.46 L189.52,578.56 L191.33,575.80 L193.24,573.17 L195.27,570.67 L197.41,568.30 L199.66,566.05 L202.03,563.91 L204.53,561.88 L207.16,559.97 L209.92,558.16 L212.82,556.46 L215.87,554.87 L219.07,553.38 L222.44,551.99 L225.98,550.70 L229.72,549.51 L233.67,548.42 L237.85,547.42 L242.29,546.53 L247.04,545.72 L252.13,545.02 L257.64,544.41 L263.67,543.89 L270.38,543.47 L278.02,543.14 L287.11,542.91 L298.99,542.77 L327.68,542.72 L356.37,542.77 L368.25,542.91 L377.34,543.14 L384.98,543.47 L391.69,543.89 L397.72,544.41 L403.23,545.02 L408.32,545.72 L413.07,546.53 L417.51,547.42 L421.69,548.42 L425.64,549.51 L429.38,550.70 L432.92,551.99 L436.29,553.38 L439.49,554.87 L442.54,556.46 L445.44,558.16 L448.20,559.97 L450.83,561.88 L453.33,563.91 L455.70,566.05 L457.95,568.30 L460.09,570.67 L462.12,573.17 L464.03,575.80 L465.84,578.56 L467.54,581.46 L469.13,584.51 L470.62,587.71 L472.01,591.08 L473.30,594.62 L474.49,598.36 L475.58,602.31 L476.58,606.49 L477.47,610.93 L478.28,615.68 L478.98,620.77 L479.59,626.28 L480.11,632.31 L480.53,639.02 L480.86,646.66 L481.09,655.75 L481.23,667.63 Z"/><path fill="#6F685F" d="M849.92,696.32 L849.87,725.01 L849.73,736.89 L849.50,745.98 L849.17,753.62 L848.75,760.33 L848.23,766.36 L847.62,771.87 L846.92,776.96 L846.11,781.71 L845.22,786.15 L844.22,790.33 L843.13,794.28 L841.94,798.02 L840.65,801.56 L839.26,804.93 L837.77,808.13 L836.18,811.18 L834.48,814.08 L832.67,816.84 L830.76,819.47 L828.73,821.97 L826.59,824.34 L824.34,826.59 L821.97,828.73 L819.47,830.76 L816.84,832.67 L814.08,834.48 L811.18,836.18 L808.13,837.77 L804.93,839.26 L801.56,840.65 L798.02,841.94 L794.28,843.13 L790.33,844.22 L786.15,845.22 L781.71,846.11 L776.96,846.92 L771.87,847.62 L766.36,848.23 L760.33,848.75 L753.62,849.17 L745.98,849.50 L736.89,849.73 L725.01,849.87 L696.32,849.92 L667.63,849.87 L655.75,849.73 L646.66,849.50 L639.02,849.17 L632.31,848.75 L626.28,848.23 L620.77,847.62 L615.68,846.92 L610.93,846.11 L606.49,845.22 L602.31,844.22 L598.36,843.13 L594.62,841.94 L591.08,840.65 L587.71,839.26 L584.51,837.77 L581.46,836.18 L578.56,834.48 L575.80,832.67 L573.17,830.76 L570.67,828.73 L568.30,826.59 L566.05,824.34 L563.91,821.97 L561.88,819.47 L559.97,816.84 L558.16,814.08 L556.46,811.18 L554.87,808.13 L553.38,804.93 L551.99,801.56 L550.70,798.02 L549.51,794.28 L548.42,790.33 L547.42,786.15 L546.53,781.71 L545.72,776.96 L545.02,771.87 L544.41,766.36 L543.89,760.33 L543.47,753.62 L543.14,745.98 L542.91,736.89 L542.77,725.01 L542.72,696.32 L542.77,667.63 L542.91,655.75 L543.14,646.66 L543.47,639.02 L543.89,632.31 L544.41,626.28 L545.02,620.77 L545.72,615.68 L546.53,610.93 L547.42,606.49 L548.42,602.31 L549.51,598.36 L550.70,594.62 L551.99,591.08 L553.38,587.71 L554.87,584.51 L556.46,581.46 L558.16,578.56 L559.97,575.80 L561.88,573.17 L563.91,570.67 L566.05,568.30 L568.30,566.05 L570.67,563.91 L573.17,561.88 L575.80,559.97 L578.56,558.16 L581.46,556.46 L584.51,554.87 L587.71,553.38 L591.08,551.99 L594.62,550.70 L598.36,549.51 L602.31,548.42 L606.49,547.42 L610.93,546.53 L615.68,545.72 L620.77,545.02 L626.28,544.41 L632.31,543.89 L639.02,543.47 L646.66,543.14 L655.75,542.91 L667.63,542.77 L696.32,542.72 L725.01,542.77 L736.89,542.91 L745.98,543.14 L753.62,543.47 L760.33,543.89 L766.36,544.41 L771.87,545.02 L776.96,545.72 L781.71,546.53 L786.15,547.42 L790.33,548.42 L794.28,549.51 L798.02,550.70 L801.56,551.99 L804.93,553.38 L808.13,554.87 L811.18,556.46 L814.08,558.16 L816.84,559.97 L819.47,561.88 L821.97,563.91 L824.34,566.05 L826.59,568.30 L828.73,570.67 L830.76,573.17 L832.67,575.80 L834.48,578.56 L836.18,581.46 L837.77,584.51 L839.26,587.71 L840.65,591.08 L841.94,594.62 L843.13,598.36 L844.22,602.31 L845.22,606.49 L846.11,610.93 L846.92,615.68 L847.62,620.77 L848.23,626.28 L848.75,632.31 L849.17,639.02 L849.50,646.66 L849.73,655.75 L849.87,667.63 Z"/></svg>