<svg xmlns="http://www.w3.org/2000/svg" viewBox="0 0 1649 520" role="img" aria-label="GSD, dark"><g transform="translate(4,4)"><path fill-rule="evenodd" fill="#E0705F" d="M232.73,116.36 L232.69,138.10 L232.59,147.10 L232.41,153.99 L232.16,159.77 L231.84,164.85 L231.45,169.42 L230.99,173.60 L230.45,177.46 L229.84,181.05 L229.16,184.42 L228.41,187.58 L227.58,190.58 L226.68,193.41 L225.71,196.09 L224.65,198.65 L223.52,201.07 L222.31,203.38 L221.03,205.58 L219.66,207.67 L218.21,209.66 L216.68,211.55 L215.06,213.35 L213.35,215.06 L211.55,216.68 L209.66,218.21 L207.67,219.66 L205.58,221.03 L203.38,222.31 L201.07,223.52 L198.65,224.65 L196.09,225.71 L193.41,226.68 L190.58,227.58 L187.58,228.41 L184.42,229.16 L181.05,229.84 L177.46,230.45 L173.60,230.99 L169.42,231.45 L164.85,231.84 L159.77,232.16 L153.99,232.41 L147.10,232.59 L138.10,232.69 L116.36,232.73 L94.63,232.69 L85.63,232.59 L78.74,232.41 L72.95,232.16 L67.87,231.84 L63.30,231.45 L59.13,230.99 L55.27,230.45 L51.68,229.84 L48.31,229.16 L45.14,228.41 L42.15,227.58 L39.32,226.68 L36.63,225.71 L34.08,224.65 L31.66,223.52 L29.35,222.31 L27.15,221.03 L25.06,219.66 L23.07,218.21 L21.18,216.68 L19.38,215.06 L17.67,213.35 L16.05,211.55 L14.52,209.66 L13.07,207.67 L11.70,205.58 L10.41,203.38 L9.20,201.07 L8.08,198.65 L7.02,196.09 L6.05,193.41 L5.14,190.58 L4.32,187.58 L3.56,184.42 L2.88,181.05 L2.28,177.46 L1.74,173.60 L1.28,169.42 L0.89,164.85 L0.57,159.77 L0.32,153.99 L0.14,147.10 L0.04,138.10 L0.00,116.36 L0.04,94.63 L0.14,85.63 L0.32,78.74 L0.57,72.95 L0.89,67.87 L1.28,63.30 L1.74,59.13 L2.28,55.27 L2.88,51.68 L3.56,48.31 L4.32,45.14 L5.14,42.15 L6.05,39.32 L7.02,36.63 L8.08,34.08 L9.20,31.66 L10.41,29.35 L11.70,27.15 L13.07,25.06 L14.52,23.07 L16.05,21.18 L17.67,19.38 L19.38,17.67 L21.18,16.05 L23.07,14.52 L25.06,13.07 L27.15,11.70 L29.35,10.41 L31.66,9.20 L34.08,8.08 L36.63,7.02 L39.32,6.05 L42.15,5.14 L45.14,4.32 L48.31,3.56 L51.68,2.88 L55.27,2.28 L59.13,1.74 L63.30,1.28 L67.87,0.89 L72.95,0.57 L78.74,0.32 L85.63,0.14 L94.63,0.04 L116.36,0.00 L138.10,0.04 L147.10,0.14 L153.99,0.32 L159.77,0.57 L164.85,0.89 L169.42,1.28 L173.60,1.74 L177.46,2.28 L181.05,2.88 L184.42,3.56 L187.58,4.32 L190.58,5.14 L193.41,6.05 L196.09,7.02 L198.65,8.08 L201.07,9.20 L203.38,10.41 L205.58,11.70 L207.67,13.07 L209.66,14.52 L211.55,16.05 L213.35,17.67 L215.06,19.38 L216.68,21.18 L218.21,23.07 L219.66,25.06 L221.03,27.15 L222.31,29.35 L223.52,31.66 L224.65,34.08 L225.71,36.63 L226.68,39.32 L227.58,42.15 L228.41,45.14 L229.16,48.31 L229.84,51.68 L230.45,55.27 L230.99,59.13 L231.45,63.30 L231.84,67.87 L232.16,72.95 L232.41,78.74 L232.59,85.63 L232.69,94.63 Z M91.25,156.99 L91.89,157.59 L92.56,158.14 L93.27,158.65 L94.00,159.12 L94.77,159.53 L95.56,159.90 L96.38,160.21 L97.21,160.47 L98.06,160.68 L98.91,160.83 L99.78,160.93 L100.65,160.97 L101.52,160.95 L102.39,160.88 L103.26,160.75 L104.11,160.57 L104.95,160.34 L105.77,160.05 L106.57,159.70 L107.35,159.31 L108.10,158.87 L108.83,158.38 L109.51,157.84 L110.17,157.27 L110.78,156.65 L111.36,155.99 L181.17,70.66 L181.71,69.95 L182.21,69.21 L182.65,68.44 L183.04,67.64 L183.38,66.82 L183.66,65.98 L183.89,65.12 L184.06,64.25 L184.18,63.37 L184.24,62.48 L184.23,61.60 L184.18,60.71 L184.06,59.83 L183.88,58.96 L183.65,58.10 L183.37,57.26 L183.02,56.44 L182.63,55.64 L182.18,54.87 L181.69,54.14 L181.15,53.43 L180.56,52.77 L179.93,52.14 L179.26,51.55 L178.56,51.01 L177.82,50.52 L177.05,50.08 L176.25,49.69 L175.43,49.35 L174.59,49.06 L173.73,48.83 L172.86,48.66 L171.98,48.55 L171.09,48.49 L170.20,48.49 L169.32,48.55 L168.44,48.67 L167.56,48.84 L166.71,49.08 L165.87,49.36 L165.05,49.70 L164.25,50.10 L163.48,50.54 L162.74,51.04 L162.04,51.58 L161.37,52.17 L160.74,52.80 L160.16,53.46 L99.84,127.19 L79.42,106.76 L78.77,106.16 L78.08,105.59 L77.36,105.08 L76.61,104.61 L75.82,104.19 L75.01,103.82 L74.18,103.51 L73.33,103.25 L72.47,103.05 L71.59,102.90 L70.71,102.82 L69.82,102.79 L68.93,102.82 L68.05,102.90 L67.17,103.05 L66.30,103.25 L65.45,103.51 L64.62,103.82 L63.81,104.19 L63.03,104.61 L62.28,105.08 L61.55,105.59 L60.87,106.16 L60.22,106.76 L59.61,107.41 L59.05,108.10 L58.53,108.82 L58.06,109.58 L57.64,110.36 L57.28,111.17 L56.96,112.00 L56.71,112.85 L56.50,113.72 L56.36,114.59 L56.27,115.48 L56.24,116.36 L56.27,117.25 L56.36,118.14 L56.50,119.01 L56.71,119.88 L56.96,120.73 L57.28,121.56 L57.64,122.37 L58.06,123.15 L58.53,123.91 L59.05,124.63 L59.61,125.31 L60.22,125.96 L91.25,156.99 Z"/><path fill="#6FAACB" d="M512.00,116.36 L511.96,138.10 L511.86,147.10 L511.68,153.99 L511.43,159.77 L511.11,164.85 L510.72,169.42 L510.26,173.60 L509.72,177.46 L509.12,181.05 L508.44,184.42 L507.68,187.58 L506.86,190.58 L505.95,193.41 L504.98,196.09 L503.92,198.65 L502.80,201.07 L501.59,203.38 L500.30,205.58 L498.93,207.67 L497.48,209.66 L495.95,211.55 L494.33,213.35 L492.62,215.06 L490.82,216.68 L488.93,218.21 L486.94,219.66 L484.85,221.03 L482.65,222.31 L480.34,223.52 L477.92,224.65 L475.37,225.71 L472.68,226.68 L469.85,227.58 L466.86,228.41 L463.69,229.16 L460.32,229.84 L456.73,230.45 L452.87,230.99 L448.70,231.45 L444.13,231.84 L439.05,232.16 L433.26,232.41 L426.37,232.59 L417.37,232.69 L395.64,232.73 L373.90,232.69 L364.90,232.59 L358.01,232.41 L352.23,232.16 L347.15,231.84 L342.58,231.45 L338.40,230.99 L334.54,230.45 L330.95,229.84 L327.58,229.16 L324.42,228.41 L321.42,227.58 L318.59,226.68 L315.91,225.71 L313.35,224.65 L310.93,223.52 L308.62,222.31 L306.42,221.03 L304.33,219.66 L302.34,218.21 L300.45,216.68 L298.65,215.06 L296.94,213.35 L295.32,211.55 L293.79,209.66 L292.34,207.67 L290.97,205.58 L289.69,203.38 L288.48,201.07 L287.35,198.65 L286.29,196.09 L285.32,193.41 L284.42,190.58 L283.59,187.58 L282.84,184.42 L282.16,181.05 L281.55,177.46 L281.01,173.60 L280.55,169.42 L280.16,164.85 L279.84,159.77 L279.59,153.99 L279.41,147.10 L279.31,138.10 L279.27,116.36 L279.31,94.63 L279.41,85.63 L279.59,78.74 L279.84,72.95 L280.16,67.87 L280.55,63.30 L281.01,59.13 L281.55,55.27 L282.16,51.68 L282.84,48.31 L283.59,45.14 L284.42,42.15 L285.32,39.32 L286.29,36.63 L287.35,34.08 L288.48,31.66 L289.69,29.35 L290.97,27.15 L292.34,25.06 L293.79,23.07 L295.32,21.18 L296.94,19.38 L298.65,17.67 L300.45,16.05 L302.34,14.52 L304.33,13.07 L306.42,11.70 L308.62,10.41 L310.93,9.20 L313.35,8.08 L315.91,7.02 L318.59,6.05 L321.42,5.14 L324.42,4.32 L327.58,3.56 L330.95,2.88 L334.54,2.28 L338.40,1.74 L342.58,1.28 L347.15,0.89 L352.23,0.57 L358.01,0.32 L364.90,0.14 L373.90,0.04 L395.64,0.00 L417.37,0.04 L426.37,0.14 L433.26,0.32 L439.05,0.57 L444.13,0.89 L448.70,1.28 L452.87,1.74 L456.73,2.28 L460.32,2.88 L463.69,3.56 L466.86,4.32 L469.85,5.14 L472.68,6.05 L475.37,7.02 L477.92,8.08 L480.34,9.20 L482.65,10.41 L484.85,11.70 L486.94,13.07 L488.93,14.52 L490.82,16.05 L492.62,17.67 L494.33,19.38 L495.95,21.18 L497.48,23.07 L498.93,25.06 L500.30,27.15 L501.59,29.35 L502.80,31.66 L503.92,34.08 L504.98,36.63 L505.95,39.32 L506.86,42.15 L507.68,45.14 L508.44,48.31 L509.12,51.68 L509.72,55.27 L510.26,59.13 L510.72,63.30 L511.11,67.87 L511.43,72.95 L511.68,78.74 L511.86,85.63 L511.96,94.63 Z"/><path fill="#CFB266" d="M232.73,395.64 L232.69,417.37 L232.59,426.37 L232.41,433.26 L232.16,439.05 L231.84,444.13 L231.45,448.70 L230.99,452.87 L230.45,456.73 L229.84,460.32 L229.16,463.69 L228.41,466.86 L227.58,469.85 L226.68,472.68 L225.71,475.37 L224.65,477.92 L223.52,480.34 L222.31,482.65 L221.03,484.85 L219.66,486.94 L218.21,488.93 L216.68,490.82 L215.06,492.62 L213.35,494.33 L211.55,495.95 L209.66,497.48 L207.67,498.93 L205.58,500.30 L203.38,501.59 L201.07,502.80 L198.65,503.92 L196.09,504.98 L193.41,505.95 L190.58,506.86 L187.58,507.68 L184.42,508.44 L181.05,509.12 L177.46,509.72 L173.60,510.26 L169.42,510.72 L164.85,511.11 L159.77,511.43 L153.99,511.68 L147.10,511.86 L138.10,511.96 L116.36,512.00 L94.63,511.96 L85.63,511.86 L78.74,511.68 L72.95,511.43 L67.87,511.11 L63.30,510.72 L59.13,510.26 L55.27,509.72 L51.68,509.12 L48.31,508.44 L45.14,507.68 L42.15,506.86 L39.32,505.95 L36.63,504.98 L34.08,503.92 L31.66,502.80 L29.35,501.59 L27.15,500.30 L25.06,498.93 L23.07,497.48 L21.18,495.95 L19.38,494.33 L17.67,492.62 L16.05,490.82 L14.52,488.93 L13.07,486.94 L11.70,484.85 L10.41,482.65 L9.20,480.34 L8.08,477.92 L7.02,475.37 L6.05,472.68 L5.14,469.85 L4.32,466.86 L3.56,463.69 L2.88,460.32 L2.28,456.73 L1.74,452.87 L1.28,448.70 L0.89,444.13 L0.57,439.05 L0.32,433.26 L0.14,426.37 L0.04,417.37 L0.00,395.64 L0.04,373.90 L0.14,364.90 L0.32,358.01 L0.57,352.23 L0.89,347.15 L1.28,342.58 L1.74,338.40 L2.28,334.54 L2.88,330.95 L3.56,327.58 L4.32,324.42 L5.14,321.42 L6.05,318.59 L7.02,315.91 L8.08,313.35 L9.20,310.93 L10.41,308.62 L11.70,306.42 L13.07,304.33 L14.52,302.34 L16.05,300.45 L17.67,298.65 L19.38,296.94 L21.18,295.32 L23.07,293.79 L25.06,292.34 L27.15,290.97 L29.35,289.69 L31.66,288.48 L34.08,287.35 L36.63,286.29 L39.32,285.32 L42.15,284.42 L45.14,283.59 L48.31,282.84 L51.68,282.16 L55.27,281.55 L59.13,281.01 L63.30,280.55 L67.87,280.16 L72.95,279.84 L78.74,279.59 L85.63,279.41 L94.63,279.31 L116.36,279.27 L138.10,279.31 L147.10,279.41 L153.99,279.59 L159.77,279.84 L164.85,280.16 L169.42,280.55 L173.60,281.01 L177.46,281.55 L181.05,282.16 L184.42,282.84 L187.58,283.59 L190.58,284.42 L193.41,285.32 L196.09,286.29 L198.65,287.35 L201.07,288.48 L203.38,289.69 L205.58,290.97 L207.67,292.34 L209.66,293.79 L211.55,295.32 L213.35,296.94 L215.06,298.65 L216.68,300.45 L218.21,302.34 L219.66,304.33 L221.03,306.42 L222.31,308.62 L223.52,310.93 L224.65,313.35 L225.71,315.91 L226.68,318.59 L227.58,321.42 L228.41,324.42 L229.16,327.58 L229.84,330.95 L230.45,334.54 L230.99,338.40 L231.45,342.58 L231.84,347.15 L232.16,352.23 L232.41,358.01 L232.59,364.90 L232.69,373.90 Z"/><path fill="#A9A096" d="M512.00,395.64 L511.96,417.37 L511.86,426.37 L511.68,433.26 L511.43,439.05 L511.11,444.13 L510.72,448.70 L510.26,452.87 L509.72,456.73 L509.12,460.32 L508.44,463.69 L507.68,466.86 L506.86,469.85 L505.95,472.68 L504.98,475.37 L503.92,477.92 L502.80,480.34 L501.59,482.65 L500.30,484.85 L498.93,486.94 L497.48,488.93 L495.95,490.82 L494.33,492.62 L492.62,494.33 L490.82,495.95 L488.93,497.48 L486.94,498.93 L484.85,500.30 L482.65,501.59 L480.34,502.80 L477.92,503.92 L475.37,504.98 L472.68,505.95 L469.85,506.86 L466.86,507.68 L463.69,508.44 L460.32,509.12 L456.73,509.72 L452.87,510.26 L448.70,510.72 L444.13,511.11 L439.05,511.43 L433.26,511.68 L426.37,511.86 L417.37,511.96 L395.64,512.00 L373.90,511.96 L364.90,511.86 L358.01,511.68 L352.23,511.43 L347.15,511.11 L342.58,510.72 L338.40,510.26 L334.54,509.72 L330.95,509.12 L327.58,508.44 L324.42,507.68 L321.42,506.86 L318.59,505.95 L315.91,504.98 L313.35,503.92 L310.93,502.80 L308.62,501.59 L306.42,500.30 L304.33,498.93 L302.34,497.48 L300.45,495.95 L298.65,494.33 L296.94,492.62 L295.32,490.82 L293.79,488.93 L292.34,486.94 L290.97,484.85 L289.69,482.65 L288.48,480.34 L287.35,477.92 L286.29,475.37 L285.32,472.68 L284.42,469.85 L283.59,466.86 L282.84,463.69 L282.16,460.32 L281.55,456.73 L281.01,452.87 L280.55,448.70 L280.16,444.13 L279.84,439.05 L279.59,433.26 L279.41,426.37 L279.31,417.37 L279.27,395.64 L279.31,373.90 L279.41,364.90 L279.59,358.01 L279.84,352.23 L280.16,347.15 L280.55,342.58 L281.01,338.40 L281.55,334.54 L282.16,330.95 L282.84,327.58 L283.59,324.42 L284.42,321.42 L285.32,318.59 L286.29,315.91 L287.35,313.35 L288.48,310.93 L289.69,308.62 L290.97,306.42 L292.34,304.33 L293.79,302.34 L295.32,300.45 L296.94,298.65 L298.65,296.94 L300.45,295.32 L302.34,293.79 L304.33,292.34 L306.42,290.97 L308.62,289.69 L310.93,288.48 L313.35,287.35 L315.91,286.29 L318.59,285.32 L321.42,284.42 L324.42,283.59 L327.58,282.84 L330.95,282.16 L334.54,281.55 L338.40,281.01 L342.58,280.55 L347.15,280.16 L352.23,279.84 L358.01,279.59 L364.90,279.41 L373.90,279.31 L395.64,279.27 L417.37,279.31 L426.37,279.41 L433.26,279.59 L439.05,279.84 L444.13,280.16 L448.70,280.55 L452.87,281.01 L456.73,281.55 L460.32,282.16 L463.69,282.84 L466.86,283.59 L469.85,284.42 L472.68,285.32 L475.37,286.29 L477.92,287.35 L480.34,288.48 L482.65,289.69 L484.85,290.97 L486.94,292.34 L488.93,293.79 L490.82,295.32 L492.62,296.94 L494.33,298.65 L495.95,300.45 L497.48,302.34 L498.93,304.33 L500.30,306.42 L501.59,308.62 L502.80,310.93 L503.92,313.35 L504.98,315.91 L505.95,318.59 L506.86,321.42 L507.68,324.42 L508.44,327.58 L509.12,330.95 L509.72,334.54 L510.26,338.40 L510.72,342.58 L511.11,347.15 L511.43,352.23 L511.68,358.01 L511.86,364.90 L511.96,373.90 Z"/><path fill="#F1ECE2" d="M796.8 421.7Q775.5 421.7 751.0 416.5Q726.4 411.2 702.5 399.4Q678.5 387.7 658.9 368.4Q639.3 349.1 627.4 321.5Q615.5 294.0 615.5 256.8Q615.5 219.8 626.9 192.1Q638.4 164.5 657.7 145.0Q677.1 125.5 701.1 113.4Q725.1 101.3 750.5 95.8Q776.0 90.3 799.0 90.3Q842.7 90.3 872.0 97.6Q901.2 104.8 912.9 110.0L917.8 179.5Q918.3 183.3 913.2 185.9Q908.2 188.4 905.3 188.4Q904.6 188.4 903.9 188.5Q903.2 188.7 902.1 188.7Q897.9 188.7 892.3 187.2Q886.7 185.7 886.0 182.2Q880.8 163.3 870.9 147.3Q860.9 131.3 843.4 121.5Q825.9 111.8 798.6 111.8Q789.0 111.8 776.2 115.0Q763.4 118.3 750.2 127.0Q737.0 135.8 725.6 152.0Q714.3 168.3 707.4 193.9Q700.4 219.6 700.4 256.8Q700.4 297.8 710.6 325.5Q720.8 353.1 736.5 369.6Q752.2 386.1 769.3 393.3Q786.5 400.4 800.6 400.4Q821.4 400.4 832.0 396.2Q842.5 391.9 846.1 385.2Q849.7 378.5 849.7 371.5V312.8Q849.7 303.2 842.9 298.8Q836.0 294.4 826.4 293.1Q816.7 291.7 808.0 291.1Q803.3 290.6 801.6 289.2Q799.9 287.7 799.9 282.8Q799.9 280.3 801.8 275.8Q803.7 271.4 807.6 271.4H947.6Q951.4 271.4 953.3 275.8Q955.2 280.3 955.2 282.8Q955.2 290.2 947.8 291.1Q938.0 292.2 930.7 295.1Q923.4 298.0 923.4 305.4L923.6 387.4Q920.3 392.4 903.5 400.5Q886.7 408.7 859.3 415.2Q832.0 421.7 796.8 421.7Z M1128.5 421.7Q1100.9 421.7 1081.5 415.2Q1062.2 408.7 1054.3 405.8Q1048.0 403.3 1044.8 401.4Q1041.5 399.5 1038.8 399.5Q1035.9 399.5 1034.0 401.3Q1032.1 403.1 1030.8 404.7Q1026.1 410.1 1022.2 412.0Q1018.2 413.9 1014.2 413.9Q1008.6 413.9 1005.1 410.9Q1001.6 407.8 1001.9 403.1Q1002.3 397.1 1002.3 394.6Q1002.3 392.1 1002.3 384.1Q1002.3 363.2 1000.6 344.2Q999.0 325.1 999.0 317.1Q999.0 307.7 1002.9 304.5Q1006.8 301.4 1012.0 301.4Q1022.7 301.4 1025.4 310.8Q1027.0 316.4 1030.3 326.7Q1033.7 337.0 1040.6 349.1Q1049.6 364.4 1063.3 376.1Q1076.9 387.9 1094.1 394.6Q1111.2 401.3 1130.3 401.3Q1142.8 401.3 1154.1 396.8Q1165.5 392.4 1172.6 383.2Q1179.8 374.0 1179.4 360.1Q1178.9 338.8 1165.6 324.5Q1152.2 310.1 1132.7 299.4Q1113.3 288.6 1093.8 278.3Q1079.0 270.5 1063.5 261.5Q1048.0 252.5 1035.0 241.1Q1022.0 229.7 1014.0 214.4Q1005.9 199.2 1005.9 179.0Q1005.9 159.1 1014.2 142.7Q1022.5 126.4 1037.7 114.7Q1053.0 103.1 1073.8 96.8Q1094.7 90.5 1119.7 90.5Q1140.1 90.5 1152.7 93.4Q1165.2 96.3 1173.1 99.2Q1180.9 102.2 1187.4 102.2Q1193.0 102.2 1194.6 99.9Q1196.2 97.7 1199.3 95.7Q1201.8 94.1 1205.6 94.1Q1211.2 94.1 1216.3 96.6Q1221.5 99.0 1221.5 102.6Q1221.7 114.3 1223.1 129.0Q1224.4 143.8 1225.7 155.9Q1227.1 168.0 1227.1 171.6Q1227.1 179.0 1222.8 181.8Q1218.6 184.6 1213.0 184.6Q1208.7 184.6 1206.0 183.3Q1203.3 181.9 1201.8 179.5Q1201.8 179.2 1200.1 172.3Q1198.4 165.4 1193.8 155.0Q1189.2 144.7 1180.6 134.4Q1172.0 124.1 1157.8 117.2Q1143.7 110.2 1123.1 110.2Q1109.7 110.2 1097.1 113.9Q1084.6 117.6 1076.5 126.0Q1068.4 134.4 1068.4 149.0Q1068.4 167.1 1080.8 181.0Q1093.1 194.9 1111.9 205.9Q1130.7 216.9 1149.8 226.5Q1167.3 235.3 1184.4 245.0Q1201.5 254.8 1215.6 266.9Q1229.6 279.0 1238.1 294.3Q1246.6 309.7 1246.6 329.4Q1246.6 357.9 1230.2 378.6Q1213.9 399.3 1187.1 410.5Q1160.3 421.7 1128.5 421.7Z M1300.8 415.0Q1297.0 415.0 1295.1 410.5Q1293.2 406.0 1293.2 403.6Q1293.2 396.2 1300.6 395.3Q1311.4 394.4 1322.2 391.4Q1333.1 388.3 1333.1 380.9V138.5Q1333.1 128.8 1327.4 124.6Q1321.7 120.3 1313.8 118.8Q1306.0 117.4 1299.1 116.7Q1294.3 116.3 1292.7 114.8Q1291.0 113.4 1291.0 108.4Q1291.0 106.0 1292.9 101.5Q1294.8 97.0 1298.6 97.0H1454.6Q1500.3 97.2 1534.4 110.0Q1568.4 122.8 1591.1 144.5Q1613.7 166.2 1624.9 193.5Q1636.1 220.7 1636.1 249.6Q1636.1 284.6 1625.6 311.7Q1615.0 338.8 1597.3 358.3Q1579.6 377.8 1557.9 390.3Q1536.2 402.9 1513.5 408.9Q1490.9 415.0 1470.7 415.0ZM1408.6 377.4Q1408.6 380.5 1412.2 384.0Q1415.8 387.4 1425.8 389.9Q1435.8 392.4 1455.3 392.4Q1475.6 392.4 1492.8 388.0Q1509.9 383.6 1522.5 369.6Q1535.0 355.6 1541.9 327.2Q1548.7 298.7 1548.7 250.5Q1548.7 208.8 1541.2 182.9Q1533.7 157.1 1520.5 143.1Q1507.2 129.0 1489.9 123.9Q1472.5 118.7 1453.0 118.7H1408.9Z"/></g></svg>