<svg xmlns="http://www.w3.org/2000/svg" viewBox="0 0 1588 520" role="img" aria-label="GSD Task Manager, dark"><g transform="translate(4,4)"><path fill-rule="evenodd" fill="#E0705F" d="M232.73,116.36 L232.69,138.10 L232.59,147.10 L232.41,153.99 L232.16,159.77 L231.84,164.85 L231.45,169.42 L230.99,173.60 L230.45,177.46 L229.84,181.05 L229.16,184.42 L228.41,187.58 L227.58,190.58 L226.68,193.41 L225.71,196.09 L224.65,198.65 L223.52,201.07 L222.31,203.38 L221.03,205.58 L219.66,207.67 L218.21,209.66 L216.68,211.55 L215.06,213.35 L213.35,215.06 L211.55,216.68 L209.66,218.21 L207.67,219.66 L205.58,221.03 L203.38,222.31 L201.07,223.52 L198.65,224.65 L196.09,225.71 L193.41,226.68 L190.58,227.58 L187.58,228.41 L184.42,229.16 L181.05,229.84 L177.46,230.45 L173.60,230.99 L169.42,231.45 L164.85,231.84 L159.77,232.16 L153.99,232.41 L147.10,232.59 L138.10,232.69 L116.36,232.73 L94.63,232.69 L85.63,232.59 L78.74,232.41 L72.95,232.16 L67.87,231.84 L63.30,231.45 L59.13,230.99 L55.27,230.45 L51.68,229.84 L48.31,229.16 L45.14,228.41 L42.15,227.58 L39.32,226.68 L36.63,225.71 L34.08,224.65 L31.66,223.52 L29.35,222.31 L27.15,221.03 L25.06,219.66 L23.07,218.21 L21.18,216.68 L19.38,215.06 L17.67,213.35 L16.05,211.55 L14.52,209.66 L13.07,207.67 L11.70,205.58 L10.41,203.38 L9.20,201.07 L8.08,198.65 L7.02,196.09 L6.05,193.41 L5.14,190.58 L4.32,187.58 L3.56,184.42 L2.88,181.05 L2.28,177.46 L1.74,173.60 L1.28,169.42 L0.89,164.85 L0.57,159.77 L0.32,153.99 L0.14,147.10 L0.04,138.10 L0.00,116.36 L0.04,94.63 L0.14,85.63 L0.32,78.74 L0.57,72.95 L0.89,67.87 L1.28,63.30 L1.74,59.13 L2.28,55.27 L2.88,51.68 L3.56,48.31 L4.32,45.14 L5.14,42.15 L6.05,39.32 L7.02,36.63 L8.08,34.08 L9.20,31.66 L10.41,29.35 L11.70,27.15 L13.07,25.06 L14.52,23.07 L16.05,21.18 L17.67,19.38 L19.38,17.67 L21.18,16.05 L23.07,14.52 L25.06,13.07 L27.15,11.70 L29.35,10.41 L31.66,9.20 L34.08,8.08 L36.63,7.02 L39.32,6.05 L42.15,5.14 L45.14,4.32 L48.31,3.56 L51.68,2.88 L55.27,2.28 L59.13,1.74 L63.30,1.28 L67.87,0.89 L72.95,0.57 L78.74,0.32 L85.63,0.14 L94.63,0.04 L116.36,0.00 L138.10,0.04 L147.10,0.14 L153.99,0.32 L159.77,0.57 L164.85,0.89 L169.42,1.28 L173.60,1.74 L177.46,2.28 L181.05,2.88 L184.42,3.56 L187.58,4.32 L190.58,5.14 L193.41,6.05 L196.09,7.02 L198.65,8.08 L201.07,9.20 L203.38,10.41 L205.58,11.70 L207.67,13.07 L209.66,14.52 L211.55,16.05 L213.35,17.67 L215.06,19.38 L216.68,21.18 L218.21,23.07 L219.66,25.06 L221.03,27.15 L222.31,29.35 L223.52,31.66 L224.65,34.08 L225.71,36.63 L226.68,39.32 L227.58,42.15 L228.41,45.14 L229.16,48.31 L229.84,51.68 L230.45,55.27 L230.99,59.13 L231.45,63.30 L231.84,67.87 L232.16,72.95 L232.41,78.74 L232.59,85.63 L232.69,94.63 Z M91.25,156.99 L91.89,157.59 L92.56,158.14 L93.27,158.65 L94.00,159.12 L94.77,159.53 L95.56,159.90 L96.38,160.21 L97.21,160.47 L98.06,160.68 L98.91,160.83 L99.78,160.93 L100.65,160.97 L101.52,160.95 L102.39,160.88 L103.26,160.75 L104.11,160.57 L104.95,160.34 L105.77,160.05 L106.57,159.70 L107.35,159.31 L108.10,158.87 L108.83,158.38 L109.51,157.84 L110.17,157.27 L110.78,156.65 L111.36,155.99 L181.17,70.66 L181.71,69.95 L182.21,69.21 L182.65,68.44 L183.04,67.64 L183.38,66.82 L183.66,65.98 L183.89,65.12 L184.06,64.25 L184.18,63.37 L184.24,62.48 L184.23,61.60 L184.18,60.71 L184.06,59.83 L183.88,58.96 L183.65,58.10 L183.37,57.26 L183.02,56.44 L182.63,55.64 L182.18,54.87 L181.69,54.14 L181.15,53.43 L180.56,52.77 L179.93,52.14 L179.26,51.55 L178.56,51.01 L177.82,50.52 L177.05,50.08 L176.25,49.69 L175.43,49.35 L174.59,49.06 L173.73,48.83 L172.86,48.66 L171.98,48.55 L171.09,48.49 L170.20,48.49 L169.32,48.55 L168.44,48.67 L167.56,48.84 L166.71,49.08 L165.87,49.36 L165.05,49.70 L164.25,50.10 L163.48,50.54 L162.74,51.04 L162.04,51.58 L161.37,52.17 L160.74,52.80 L160.16,53.46 L99.84,127.19 L79.42,106.76 L78.77,106.16 L78.08,105.59 L77.36,105.08 L76.61,104.61 L75.82,104.19 L75.01,103.82 L74.18,103.51 L73.33,103.25 L72.47,103.05 L71.59,102.90 L70.71,102.82 L69.82,102.79 L68.93,102.82 L68.05,102.90 L67.17,103.05 L66.30,103.25 L65.45,103.51 L64.62,103.82 L63.81,104.19 L63.03,104.61 L62.28,105.08 L61.55,105.59 L60.87,106.16 L60.22,106.76 L59.61,107.41 L59.05,108.10 L58.53,108.82 L58.06,109.58 L57.64,110.36 L57.28,111.17 L56.96,112.00 L56.71,112.85 L56.50,113.72 L56.36,114.59 L56.27,115.48 L56.24,116.36 L56.27,117.25 L56.36,118.14 L56.50,119.01 L56.71,119.88 L56.96,120.73 L57.28,121.56 L57.64,122.37 L58.06,123.15 L58.53,123.91 L59.05,124.63 L59.61,125.31 L60.22,125.96 L91.25,156.99 Z"/><path fill="#6FAACB" d="M512.00,116.36 L511.96,138.10 L511.86,147.10 L511.68,153.99 L511.43,159.77 L511.11,164.85 L510.72,169.42 L510.26,173.60 L509.72,177.46 L509.12,181.05 L508.44,184.42 L507.68,187.58 L506.86,190.58 L505.95,193.41 L504.98,196.09 L503.92,198.65 L502.80,201.07 L501.59,203.38 L500.30,205.58 L498.93,207.67 L497.48,209.66 L495.95,211.55 L494.33,213.35 L492.62,215.06 L490.82,216.68 L488.93,218.21 L486.94,219.66 L484.85,221.03 L482.65,222.31 L480.34,223.52 L477.92,224.65 L475.37,225.71 L472.68,226.68 L469.85,227.58 L466.86,228.41 L463.69,229.16 L460.32,229.84 L456.73,230.45 L452.87,230.99 L448.70,231.45 L444.13,231.84 L439.05,232.16 L433.26,232.41 L426.37,232.59 L417.37,232.69 L395.64,232.73 L373.90,232.69 L364.90,232.59 L358.01,232.41 L352.23,232.16 L347.15,231.84 L342.58,231.45 L338.40,230.99 L334.54,230.45 L330.95,229.84 L327.58,229.16 L324.42,228.41 L321.42,227.58 L318.59,226.68 L315.91,225.71 L313.35,224.65 L310.93,223.52 L308.62,222.31 L306.42,221.03 L304.33,219.66 L302.34,218.21 L300.45,216.68 L298.65,215.06 L296.94,213.35 L295.32,211.55 L293.79,209.66 L292.34,207.67 L290.97,205.58 L289.69,203.38 L288.48,201.07 L287.35,198.65 L286.29,196.09 L285.32,193.41 L284.42,190.58 L283.59,187.58 L282.84,184.42 L282.16,181.05 L281.55,177.46 L281.01,173.60 L280.55,169.42 L280.16,164.85 L279.84,159.77 L279.59,153.99 L279.41,147.10 L279.31,138.10 L279.27,116.36 L279.31,94.63 L279.41,85.63 L279.59,78.74 L279.84,72.95 L280.16,67.87 L280.55,63.30 L281.01,59.13 L281.55,55.27 L282.16,51.68 L282.84,48.31 L283.59,45.14 L284.42,42.15 L285.32,39.32 L286.29,36.63 L287.35,34.08 L288.48,31.66 L289.69,29.35 L290.97,27.15 L292.34,25.06 L293.79,23.07 L295.32,21.18 L296.94,19.38 L298.65,17.67 L300.45,16.05 L302.34,14.52 L304.33,13.07 L306.42,11.70 L308.62,10.41 L310.93,9.20 L313.35,8.08 L315.91,7.02 L318.59,6.05 L321.42,5.14 L324.42,4.32 L327.58,3.56 L330.95,2.88 L334.54,2.28 L338.40,1.74 L342.58,1.28 L347.15,0.89 L352.23,0.57 L358.01,0.32 L364.90,0.14 L373.90,0.04 L395.64,0.00 L417.37,0.04 L426.37,0.14 L433.26,0.32 L439.05,0.57 L444.13,0.89 L448.70,1.28 L452.87,1.74 L456.73,2.28 L460.32,2.88 L463.69,3.56 L466.86,4.32 L469.85,5.14 L472.68,6.05 L475.37,7.02 L477.92,8.08 L480.34,9.20 L482.65,10.41 L484.85,11.70 L486.94,13.07 L488.93,14.52 L490.82,16.05 L492.62,17.67 L494.33,19.38 L495.95,21.18 L497.48,23.07 L498.93,25.06 L500.30,27.15 L501.59,29.35 L502.80,31.66 L503.92,34.08 L504.98,36.63 L505.95,39.32 L506.86,42.15 L507.68,45.14 L508.44,48.31 L509.12,51.68 L509.72,55.27 L510.26,59.13 L510.72,63.30 L511.11,67.87 L511.43,72.95 L511.68,78.74 L511.86,85.63 L511.96,94.63 Z"/><path fill="#CFB266" d="M232.73,395.64 L232.69,417.37 L232.59,426.37 L232.41,433.26 L232.16,439.05 L231.84,444.13 L231.45,448.70 L230.99,452.87 L230.45,456.73 L229.84,460.32 L229.16,463.69 L228.41,466.86 L227.58,469.85 L226.68,472.68 L225.71,475.37 L224.65,477.92 L223.52,480.34 L222.31,482.65 L221.03,484.85 L219.66,486.94 L218.21,488.93 L216.68,490.82 L215.06,492.62 L213.35,494.33 L211.55,495.95 L209.66,497.48 L207.67,498.93 L205.58,500.30 L203.38,501.59 L201.07,502.80 L198.65,503.92 L196.09,504.98 L193.41,505.95 L190.58,506.86 L187.58,507.68 L184.42,508.44 L181.05,509.12 L177.46,509.72 L173.60,510.26 L169.42,510.72 L164.85,511.11 L159.77,511.43 L153.99,511.68 L147.10,511.86 L138.10,511.96 L116.36,512.00 L94.63,511.96 L85.63,511.86 L78.74,511.68 L72.95,511.43 L67.87,511.11 L63.30,510.72 L59.13,510.26 L55.27,509.72 L51.68,509.12 L48.31,508.44 L45.14,507.68 L42.15,506.86 L39.32,505.95 L36.63,504.98 L34.08,503.92 L31.66,502.80 L29.35,501.59 L27.15,500.30 L25.06,498.93 L23.07,497.48 L21.18,495.95 L19.38,494.33 L17.67,492.62 L16.05,490.82 L14.52,488.93 L13.07,486.94 L11.70,484.85 L10.41,482.65 L9.20,480.34 L8.08,477.92 L7.02,475.37 L6.05,472.68 L5.14,469.85 L4.32,466.86 L3.56,463.69 L2.88,460.32 L2.28,456.73 L1.74,452.87 L1.28,448.70 L0.89,444.13 L0.57,439.05 L0.32,433.26 L0.14,426.37 L0.04,417.37 L0.00,395.64 L0.04,373.90 L0.14,364.90 L0.32,358.01 L0.57,352.23 L0.89,347.15 L1.28,342.58 L1.74,338.40 L2.28,334.54 L2.88,330.95 L3.56,327.58 L4.32,324.42 L5.14,321.42 L6.05,318.59 L7.02,315.91 L8.08,313.35 L9.20,310.93 L10.41,308.62 L11.70,306.42 L13.07,304.33 L14.52,302.34 L16.05,300.45 L17.67,298.65 L19.38,296.94 L21.18,295.32 L23.07,293.79 L25.06,292.34 L27.15,290.97 L29.35,289.69 L31.66,288.48 L34.08,287.35 L36.63,286.29 L39.32,285.32 L42.15,284.42 L45.14,283.59 L48.31,282.84 L51.68,282.16 L55.27,281.55 L59.13,281.01 L63.30,280.55 L67.87,280.16 L72.95,279.84 L78.74,279.59 L85.63,279.41 L94.63,279.31 L116.36,279.27 L138.10,279.31 L147.10,279.41 L153.99,279.59 L159.77,279.84 L164.85,280.16 L169.42,280.55 L173.60,281.01 L177.46,281.55 L181.05,282.16 L184.42,282.84 L187.58,283.59 L190.58,284.42 L193.41,285.32 L196.09,286.29 L198.65,287.35 L201.07,288.48 L203.38,289.69 L205.58,290.97 L207.67,292.34 L209.66,293.79 L211.55,295.32 L213.35,296.94 L215.06,298.65 L216.68,300.45 L218.21,302.34 L219.66,304.33 L221.03,306.42 L222.31,308.62 L223.52,310.93 L224.65,313.35 L225.71,315.91 L226.68,318.59 L227.58,321.42 L228.41,324.42 L229.16,327.58 L229.84,330.95 L230.45,334.54 L230.99,338.40 L231.45,342.58 L231.84,347.15 L232.16,352.23 L232.41,358.01 L232.59,364.90 L232.69,373.90 Z"/><path fill="#A9A096" d="M512.00,395.64 L511.96,417.37 L511.86,426.37 L511.68,433.26 L511.43,439.05 L511.11,444.13 L510.72,448.70 L510.26,452.87 L509.72,456.73 L509.12,460.32 L508.44,463.69 L507.68,466.86 L506.86,469.85 L505.95,472.68 L504.98,475.37 L503.92,477.92 L502.80,480.34 L501.59,482.65 L500.30,484.85 L498.93,486.94 L497.48,488.93 L495.95,490.82 L494.33,492.62 L492.62,494.33 L490.82,495.95 L488.93,497.48 L486.94,498.93 L484.85,500.30 L482.65,501.59 L480.34,502.80 L477.92,503.92 L475.37,504.98 L472.68,505.95 L469.85,506.86 L466.86,507.68 L463.69,508.44 L460.32,509.12 L456.73,509.72 L452.87,510.26 L448.70,510.72 L444.13,511.11 L439.05,511.43 L433.26,511.68 L426.37,511.86 L417.37,511.96 L395.64,512.00 L373.90,511.96 L364.90,511.86 L358.01,511.68 L352.23,511.43 L347.15,511.11 L342.58,510.72 L338.40,510.26 L334.54,509.72 L330.95,509.12 L327.58,508.44 L324.42,507.68 L321.42,506.86 L318.59,505.95 L315.91,504.98 L313.35,503.92 L310.93,502.80 L308.62,501.59 L306.42,500.30 L304.33,498.93 L302.34,497.48 L300.45,495.95 L298.65,494.33 L296.94,492.62 L295.32,490.82 L293.79,488.93 L292.34,486.94 L290.97,484.85 L289.69,482.65 L288.48,480.34 L287.35,477.92 L286.29,475.37 L285.32,472.68 L284.42,469.85 L283.59,466.86 L282.84,463.69 L282.16,460.32 L281.55,456.73 L281.01,452.87 L280.55,448.70 L280.16,444.13 L279.84,439.05 L279.59,433.26 L279.41,426.37 L279.31,417.37 L279.27,395.64 L279.31,373.90 L279.41,364.90 L279.59,358.01 L279.84,352.23 L280.16,347.15 L280.55,342.58 L281.01,338.40 L281.55,334.54 L282.16,330.95 L282.84,327.58 L283.59,324.42 L284.42,321.42 L285.32,318.59 L286.29,315.91 L287.35,313.35 L288.48,310.93 L289.69,308.62 L290.97,306.42 L292.34,304.33 L293.79,302.34 L295.32,300.45 L296.94,298.65 L298.65,296.94 L300.45,295.32 L302.34,293.79 L304.33,292.34 L306.42,290.97 L308.62,289.69 L310.93,288.48 L313.35,287.35 L315.91,286.29 L318.59,285.32 L321.42,284.42 L324.42,283.59 L327.58,282.84 L330.95,282.16 L334.54,281.55 L338.40,281.01 L342.58,280.55 L347.15,280.16 L352.23,279.84 L358.01,279.59 L364.90,279.41 L373.90,279.31 L395.64,279.27 L417.37,279.31 L426.37,279.41 L433.26,279.59 L439.05,279.84 L444.13,280.16 L448.70,280.55 L452.87,281.01 L456.73,281.55 L460.32,282.16 L463.69,282.84 L466.86,283.59 L469.85,284.42 L472.68,285.32 L475.37,286.29 L477.92,287.35 L480.34,288.48 L482.65,289.69 L484.85,290.97 L486.94,292.34 L488.93,293.79 L490.82,295.32 L492.62,296.94 L494.33,298.65 L495.95,300.45 L497.48,302.34 L498.93,304.33 L500.30,306.42 L501.59,308.62 L502.80,310.93 L503.92,313.35 L504.98,315.91 L505.95,318.59 L506.86,321.42 L507.68,324.42 L508.44,327.58 L509.12,330.95 L509.72,334.54 L510.26,338.40 L510.72,342.58 L511.11,347.15 L511.43,352.23 L511.68,358.01 L511.86,364.90 L511.96,373.90 Z"/><path fill="#F1ECE2" d="M794.3 340.8Q774.4 340.8 751.6 335.9Q728.8 331.0 706.4 320.0Q684.1 309.1 665.9 291.1Q647.6 273.2 636.6 247.5Q625.5 221.9 625.5 187.2Q625.5 152.8 636.1 127.0Q646.8 101.3 664.8 83.1Q682.9 65.0 705.2 53.7Q727.5 42.5 751.2 37.4Q774.9 32.2 796.3 32.2Q837.0 32.2 864.2 39.0Q891.5 45.8 902.3 50.6L906.9 115.3Q907.3 118.8 902.6 121.2Q897.9 123.6 895.2 123.6Q894.6 123.6 894.0 123.7Q893.3 123.8 892.3 123.8Q888.3 123.8 883.1 122.5Q877.9 121.1 877.3 117.8Q872.5 100.2 863.2 85.3Q853.9 70.4 837.6 61.3Q821.4 52.3 795.9 52.3Q787.0 52.3 775.1 55.3Q763.2 58.3 750.9 66.5Q738.6 74.6 728.0 89.7Q717.5 104.8 711.0 128.7Q704.6 152.6 704.6 187.2Q704.6 225.4 714.0 251.2Q723.5 276.9 738.1 292.3Q752.7 307.6 768.7 314.3Q784.7 320.9 797.8 320.9Q817.2 320.9 827.0 317.0Q836.8 313.0 840.1 306.8Q843.5 300.5 843.5 294.0V239.4Q843.5 230.4 837.1 226.3Q830.8 222.3 821.8 221.0Q812.8 219.8 804.7 219.1Q800.3 218.7 798.7 217.4Q797.2 216.0 797.2 211.4Q797.2 209.1 798.9 205.0Q800.7 200.8 804.3 200.8H934.6Q938.2 200.8 940.0 205.0Q941.7 209.1 941.7 211.4Q941.7 218.3 934.9 219.1Q925.7 220.2 918.9 222.9Q912.1 225.6 912.1 232.5L912.3 308.8Q909.2 313.4 893.5 321.0Q877.9 328.7 852.5 334.7Q827.0 340.8 794.3 340.8Z M1103.0 340.8Q1077.3 340.8 1059.3 334.7Q1041.3 328.7 1034.0 325.9Q1028.1 323.7 1025.1 321.9Q1022.1 320.1 1019.6 320.1Q1016.8 320.1 1015.1 321.8Q1013.3 323.4 1012.1 324.9Q1007.7 329.9 1004.0 331.7Q1000.4 333.5 996.6 333.5Q991.4 333.5 988.2 330.6Q984.9 327.8 985.1 323.4Q985.6 317.8 985.6 315.5Q985.6 313.2 985.6 305.7Q985.6 286.3 984.0 268.6Q982.4 250.9 982.4 243.3Q982.4 234.6 986.1 231.7Q989.7 228.7 994.5 228.7Q1004.5 228.7 1007.0 237.5Q1008.5 242.7 1011.6 252.3Q1014.8 261.9 1021.2 273.2Q1029.6 287.4 1042.3 298.3Q1055.0 309.3 1071.0 315.5Q1086.9 321.8 1104.7 321.8Q1116.4 321.8 1126.9 317.6Q1137.4 313.4 1144.1 304.9Q1150.8 296.3 1150.4 283.4Q1149.9 263.6 1137.5 250.2Q1125.1 236.9 1107.0 226.9Q1088.8 216.9 1070.7 207.3Q1056.9 200.0 1042.5 191.6Q1028.1 183.3 1016.0 172.6Q1003.9 162.0 996.4 147.8Q988.9 133.6 988.9 114.8Q988.9 96.3 996.6 81.1Q1004.3 65.8 1018.5 55.0Q1032.7 44.1 1052.1 38.3Q1071.5 32.5 1094.9 32.5Q1113.8 32.5 1125.5 35.2Q1137.2 37.9 1144.5 40.6Q1151.8 43.3 1157.9 43.3Q1163.1 43.3 1164.5 41.2Q1166.0 39.1 1168.9 37.2Q1171.2 35.8 1174.8 35.8Q1180.0 35.8 1184.8 38.1Q1189.6 40.4 1189.6 43.7Q1189.8 54.6 1191.0 68.3Q1192.3 82.1 1193.5 93.4Q1194.8 104.6 1194.8 108.0Q1194.8 114.8 1190.8 117.5Q1186.9 120.1 1181.6 120.1Q1177.7 120.1 1175.2 118.8Q1172.7 117.6 1171.2 115.3Q1171.2 115.1 1169.6 108.6Q1168.1 102.1 1163.8 92.5Q1159.5 82.9 1151.5 73.3Q1143.5 63.7 1130.3 57.3Q1117.2 50.8 1098.0 50.8Q1085.5 50.8 1073.8 54.2Q1062.1 57.7 1054.6 65.5Q1047.1 73.3 1047.1 86.9Q1047.1 103.8 1058.6 116.7Q1070.0 129.7 1087.6 139.9Q1105.1 150.1 1122.8 159.1Q1139.1 167.2 1155.0 176.3Q1171.0 185.4 1184.0 196.6Q1197.1 207.9 1205.0 222.2Q1212.9 236.5 1212.9 254.8Q1212.9 281.3 1197.7 300.6Q1182.5 319.9 1157.5 330.3Q1132.6 340.8 1103.0 340.8Z M1263.4 334.5Q1259.9 334.5 1258.1 330.3Q1256.3 326.2 1256.3 323.9Q1256.3 317.0 1263.2 316.1Q1273.2 315.3 1283.4 312.5Q1293.5 309.7 1293.5 302.8V77.1Q1293.5 68.1 1288.2 64.2Q1282.8 60.2 1275.5 58.8Q1268.2 57.5 1261.8 56.9Q1257.4 56.4 1255.8 55.1Q1254.3 53.7 1254.3 49.1Q1254.3 46.8 1256.0 42.7Q1257.8 38.5 1261.3 38.5H1406.5Q1449.1 38.7 1480.8 50.6Q1512.5 62.5 1533.6 82.7Q1554.6 103.0 1565.1 128.3Q1575.5 153.6 1575.5 180.6Q1575.5 213.1 1565.7 238.3Q1555.9 263.6 1539.4 281.7Q1522.9 299.9 1502.7 311.6Q1482.5 323.2 1461.4 328.9Q1440.3 334.5 1421.5 334.5ZM1363.8 299.5Q1363.8 302.4 1367.1 305.6Q1370.4 308.8 1379.7 311.1Q1389.0 313.4 1407.2 313.4Q1426.1 313.4 1442.1 309.4Q1458.1 305.3 1469.7 292.3Q1481.4 279.2 1487.8 252.7Q1494.1 226.2 1494.1 181.4Q1494.1 142.6 1487.2 118.5Q1480.2 94.4 1467.9 81.4Q1455.5 68.3 1439.4 63.5Q1423.2 58.7 1405.1 58.7H1364.0Z"/><path fill="#F1ECE2" d="M630.0 403.8Q630.0 403.2 630.3 402.8Q630.6 402.5 631.4 402.5H683.9Q684.7 402.5 685.0 402.8Q685.3 403.2 685.3 403.8V410.0Q685.3 411.1 684.0 411.1H665.0Q664.0 411.1 664.0 412.0V472.1Q664.0 473.5 662.7 473.5H653.7Q652.5 473.5 652.5 472.1V412.2Q652.5 411.1 651.5 411.1H631.4Q630.0 411.1 630.0 410.0Z M701.0 473.5Q700.3 473.5 700.0 472.9Q699.7 472.4 700.0 471.5L724.5 404.0Q724.8 403.2 725.2 402.9Q725.6 402.5 726.5 402.5H736.2Q738.0 402.5 738.6 404.1L762.8 471.6Q763.1 472.2 762.8 472.9Q762.5 473.5 761.8 473.5H752.7Q751.5 473.5 751.1 472.4L745.0 455.3Q744.9 454.9 744.7 454.7Q744.5 454.4 743.9 454.4H717.4Q716.5 454.4 716.2 455.3L710.0 472.5Q709.8 473.0 709.5 473.2Q709.1 473.5 708.4 473.5H701.0ZM740.9 445.5Q742.1 445.5 741.7 444.1L731.3 415.5Q731.0 414.7 730.6 414.7Q730.3 414.7 730.0 415.5L719.4 444.2Q718.9 445.5 720.1 445.5Z M829.0 416.8Q826.6 414.1 822.9 412.0Q819.3 410.0 813.4 410.0Q806.6 410.0 802.8 412.9Q799.1 415.7 799.1 420.6Q799.1 422.1 799.8 423.8Q800.4 425.6 802.5 427.3Q804.5 429.0 808.5 430.4L822.8 434.9Q831.5 437.6 835.3 442.5Q839.1 447.5 839.1 454.0Q839.1 460.4 835.9 465.0Q832.7 469.6 826.8 472.0Q820.9 474.5 812.7 474.5Q806.7 474.5 801.6 473.0Q796.5 471.6 792.5 468.9Q788.5 466.2 785.9 462.3Q785.4 461.6 785.6 461.1Q785.7 460.5 786.5 459.9L791.2 456.7Q792.2 456.0 792.7 456.1Q793.3 456.1 793.8 456.7Q796.2 459.9 798.7 461.9Q801.1 464.0 804.3 465.0Q807.5 466.0 812.0 466.0Q819.2 466.0 823.6 463.5Q828.0 461.0 828.0 455.4Q828.0 453.2 827.1 451.5Q826.2 449.7 824.1 448.2Q822.0 446.7 818.0 445.3L803.6 440.6Q798.2 438.8 794.7 435.9Q791.3 433.0 789.7 429.4Q788.1 425.8 788.1 421.9Q788.1 415.8 791.2 411.2Q794.3 406.7 800.0 404.1Q805.7 401.5 813.3 401.5Q818.3 401.5 822.6 402.7Q826.8 403.9 830.4 406.1Q834.0 408.2 836.4 411.2Q836.8 411.6 837.0 412.1Q837.1 412.6 836.4 413.2L830.9 417.4Q830.4 417.8 830.0 417.6Q829.7 417.5 829.0 416.8Z M924.5 471.9Q924.8 472.5 924.7 473.0Q924.5 473.5 923.7 473.5H913.8Q912.3 473.5 911.8 472.4L892.5 438.7Q891.9 437.8 890.9 438.9L880.7 450.7Q880.0 451.5 880.0 452.6V471.8Q880.0 473.5 878.2 473.5H870.1Q869.2 473.5 868.8 473.2Q868.5 472.8 868.5 472.0V403.9Q868.5 402.5 869.7 402.5H878.9Q880.0 402.5 880.0 403.8V436.9Q880.0 437.6 880.3 437.6Q880.6 437.6 881.0 437.1L909.8 403.6Q910.2 403.0 910.7 402.8Q911.2 402.5 912.1 402.5H920.3Q921.2 402.5 921.5 403.0Q921.8 403.5 921.3 404.1L900.2 427.9Q899.7 428.6 900.1 429.5L924.5 471.9Z M991.2 473.5Q989.6 473.5 989.6 471.8V404.0Q989.6 402.5 991.0 402.5H1003.5Q1004.3 402.5 1004.7 402.7Q1005.1 402.9 1005.3 403.7L1024.4 453.9Q1024.8 454.8 1025.2 454.7Q1025.5 454.7 1025.9 453.8L1044.8 404.0Q1045.2 402.5 1046.4 402.5H1059.5Q1060.7 402.5 1060.7 403.9V471.8Q1060.7 473.5 1058.9 473.5H1050.7Q1049.9 473.5 1049.5 473.2Q1049.2 472.8 1049.2 472.0V419.5Q1049.2 419.0 1048.9 419.1Q1048.7 419.1 1048.5 419.6L1028.8 472.2Q1028.3 473.5 1027.0 473.5H1021.3Q1019.8 473.5 1019.3 472.2L999.9 420.2Q999.7 419.6 999.5 419.6Q999.3 419.7 999.3 420.2V472.1Q999.3 472.9 999.0 473.2Q998.7 473.5 997.8 473.5H991.2Z M1090.5 473.5Q1089.8 473.5 1089.5 472.9Q1089.2 472.4 1089.5 471.5L1113.9 404.0Q1114.2 403.2 1114.7 402.9Q1115.1 402.5 1116.0 402.5H1125.6Q1127.5 402.5 1128.1 404.1L1152.3 471.6Q1152.5 472.2 1152.3 472.9Q1152.0 473.5 1151.3 473.5H1142.2Q1141.0 473.5 1140.6 472.4L1134.5 455.3Q1134.4 454.9 1134.1 454.7Q1133.9 454.4 1133.3 454.4H1106.9Q1106.0 454.4 1105.7 455.3L1099.4 472.5Q1099.3 473.0 1098.9 473.2Q1098.6 473.5 1097.9 473.5H1090.5ZM1130.4 445.5Q1131.6 445.5 1131.2 444.1L1120.8 415.5Q1120.4 414.7 1120.1 414.7Q1119.7 414.7 1119.4 415.5L1108.9 444.2Q1108.4 445.5 1109.5 445.5Z M1235.5 402.5Q1236.6 402.5 1236.6 403.7V472.2Q1236.6 472.8 1236.2 473.2Q1235.8 473.5 1235.2 473.5H1228.9Q1228.3 473.5 1227.8 473.4Q1227.3 473.2 1226.8 472.6L1191.9 422.4Q1191.4 421.7 1191.1 421.8Q1190.8 421.9 1190.8 422.5V472.1Q1190.8 473.5 1189.3 473.5H1182.5Q1181.0 473.5 1181.0 472.1V404.0Q1181.0 402.5 1182.4 402.5H1189.8Q1190.7 402.5 1191.1 402.7Q1191.5 402.9 1192.0 403.6L1225.5 452.2Q1226.1 453.0 1226.5 452.8Q1226.9 452.6 1226.9 451.9V403.8Q1226.9 402.5 1228.2 402.5Z M1266.3 473.5Q1265.7 473.5 1265.4 472.9Q1265.1 472.4 1265.4 471.5L1289.8 404.0Q1290.1 403.2 1290.5 402.9Q1291.0 402.5 1291.9 402.5H1301.5Q1303.4 402.5 1304.0 404.1L1328.2 471.6Q1328.4 472.2 1328.1 472.9Q1327.9 473.5 1327.2 473.5H1318.1Q1316.8 473.5 1316.5 472.4L1310.4 455.3Q1310.2 454.9 1310.0 454.7Q1309.8 454.4 1309.2 454.4H1282.8Q1281.9 454.4 1281.6 455.3L1275.3 472.5Q1275.2 473.0 1274.8 473.2Q1274.5 473.5 1273.7 473.5H1266.3ZM1306.3 445.5Q1307.4 445.5 1307.0 444.1L1296.6 415.5Q1296.3 414.7 1296.0 414.7Q1295.6 414.7 1295.3 415.5L1284.8 444.2Q1284.3 445.5 1285.4 445.5Z M1380.2 474.5Q1370.9 474.5 1364.0 470.1Q1357.2 465.7 1353.5 457.5Q1349.8 449.4 1349.8 438.3Q1349.8 426.8 1353.7 418.6Q1357.5 410.3 1364.5 405.9Q1371.5 401.5 1380.8 401.5Q1387.8 401.5 1393.6 404.3Q1399.3 407.1 1403.0 411.5Q1406.8 416.0 1407.6 421.0Q1407.8 422.0 1407.6 422.4Q1407.4 422.7 1406.7 422.9L1398.0 424.2Q1397.4 424.3 1397.2 424.0Q1397.0 423.7 1396.8 423.1Q1396.2 419.5 1394.0 416.5Q1391.8 413.6 1388.4 411.8Q1385.0 410.0 1380.6 410.0Q1374.6 410.0 1370.4 413.1Q1366.2 416.1 1364.1 422.3Q1361.9 428.5 1361.9 437.7Q1361.9 447.4 1364.1 453.7Q1366.3 460.0 1370.6 462.9Q1374.8 465.9 1380.9 465.9Q1385.0 465.9 1388.2 464.6Q1391.3 463.2 1393.4 461.0Q1395.5 458.7 1396.6 456.0Q1397.8 453.3 1398.1 450.6L1398.2 445.8Q1398.4 444.7 1397.2 444.7H1382.9Q1382.3 444.7 1382.0 444.5Q1381.7 444.2 1381.7 443.5V438.4Q1381.7 437.4 1382.8 437.4H1407.1Q1408.1 437.4 1408.5 437.8Q1409.0 438.3 1409.0 439.0V472.2Q1409.0 472.9 1408.7 473.2Q1408.3 473.5 1407.7 473.5H1405.3Q1404.6 473.5 1404.1 473.3Q1403.6 473.0 1403.3 472.2L1401.7 464.0Q1401.6 463.6 1401.4 463.6Q1401.2 463.6 1400.8 464.1Q1399.1 466.7 1396.3 469.1Q1393.6 471.5 1389.6 473.0Q1385.7 474.5 1380.2 474.5Z M1440.1 404.0Q1440.1 402.5 1441.3 402.5H1486.0Q1487.1 402.5 1487.1 403.7V409.8Q1487.1 411.2 1485.6 411.2H1453.0Q1451.6 411.2 1451.6 412.5V432.2Q1451.6 433.4 1452.8 433.4H1476.2Q1477.4 433.4 1477.4 434.6V441.0Q1477.4 441.5 1477.2 441.7Q1476.9 442.0 1476.2 442.0H1452.7Q1451.6 442.0 1451.6 443.1V463.7Q1451.6 464.8 1452.6 464.8H1487.0Q1488.3 464.8 1488.3 465.9V472.2Q1488.3 472.8 1488.0 473.2Q1487.7 473.5 1486.9 473.5H1441.6Q1440.1 473.5 1440.1 472.0V404.0Z M1570.1 471.4Q1570.4 472.2 1570.0 472.9Q1569.7 473.5 1568.9 473.5H1559.7Q1558.5 473.5 1557.9 472.2L1546.3 443.1Q1545.8 441.9 1543.8 441.9H1529.9Q1529.2 441.9 1529.0 442.2Q1528.7 442.6 1528.7 443.0V471.7Q1528.7 473.5 1526.9 473.5H1518.8Q1517.9 473.5 1517.5 473.1Q1517.2 472.7 1517.2 472.0V404.0Q1517.2 402.5 1518.5 402.5H1546.1Q1557.9 402.5 1564.5 407.3Q1571.0 412.1 1571.0 421.2Q1571.0 426.5 1569.0 430.3Q1567.0 434.1 1563.9 436.4Q1560.7 438.8 1557.3 439.9Q1556.5 440.1 1556.9 441.0L1570.1 471.4ZM1543.8 433.8Q1551.3 433.8 1555.2 431.0Q1559.0 428.1 1559.0 422.2Q1559.0 416.3 1555.5 413.5Q1551.9 410.6 1545.5 410.6H1530.3Q1528.7 410.6 1528.7 411.8V432.4Q1528.7 433.8 1529.8 433.8H1543.8Z"/></g></svg>